<svg id="visual" viewBox="0 0 900 600" width="900" height="600" xmlns="http://www.w3.org/2000/svg" xmlns:xlink="http://www.w3.org/1999/xlink" version="1.1"><rect x="0" y="0" width="900" height="600" fill="#ffffff"></rect><path d="M776 600L763 580C750 560 724 520 676.8 480C629.7 440 561.3 400 531.3 360C501.3 320 509.7 280 536.5 240C563.3 200 608.7 160 645.7 120C682.7 80 711.3 40 725.7 20L740 0L900 0L900 20C900 40 900 80 900 120C900 160 900 200 900 240C900 280 900 320 900 360C900 400 900 440 900 480C900 520 900 560 900 580L900 600Z" fill="#dea6ff"></path><path d="M883 600L862 580C841 560 799 520 756 480C713 440 669 400 660.7 360C652.3 320 679.7 280 699.5 240C719.3 200 731.7 160 709.2 120C686.7 80 629.3 40 600.7 20L572 0L900 0L900 20C900 40 900 80 900 120C900 160 900 200 900 240C900 280 900 320 900 360C900 400 900 440 900 480C900 520 900 560 900 580L900 600Z" fill="#a200ff"></path></svg>